<?xml version="1.0" encoding="UTF-8"?>
<svg xmlns="http://www.w3.org/2000/svg" viewBox="0 0 600 800" fill="none">
  <defs>
    <linearGradient id="a2-bg" x1="0" y1="0" x2="600" y2="800">
      <stop offset="0%" stop-color="#ffd0e0"/>
      <stop offset="50%" stop-color="#ffe6ea"/>
      <stop offset="100%" stop-color="#eef1ff"/>
    </linearGradient>
    <linearGradient id="a2-hair" x1="300" y1="100" x2="300" y2="350">
      <stop offset="0%" stop-color="#5c4030"/>
      <stop offset="100%" stop-color="#3d2817"/>
    </linearGradient>
  </defs>
  <rect width="600" height="800" fill="url(#a2-bg)"/>
  <path d="M160 360c25-130 95-200 140-200s115 70 140 200c-40-30-95-48-140-48s-100 18-140 48z" fill="url(#a2-hair)"/>
  <ellipse cx="300" cy="420" rx="100" ry="115" fill="#fde8d8"/>
  <ellipse cx="250" cy="405" rx="20" ry="24" fill="#fff"/>
  <ellipse cx="350" cy="405" rx="20" ry="24" fill="#fff"/>
  <ellipse cx="254" cy="410" rx="12" ry="15" fill="#6b4423"/>
  <ellipse cx="354" cy="410" rx="12" ry="15" fill="#6b4423"/>
  <path d="M278 458c12 12 32 12 44 0" stroke="#ef7488" stroke-width="4" stroke-linecap="round"/>
</svg>
